<?xml version="1.0" standalone="no"?><!-- Generator: Gravit.io --><svg xmlns="http://www.w3.org/2000/svg" xmlns:xlink="http://www.w3.org/1999/xlink" style="isolation:isolate" viewBox="0 0 506 200" width="506" height="200"><defs><clipPath id="_clipPath_hrJAcYmTB4E61UfXSJtyqJjEgWGElkXV"><rect width="506" height="200"/></clipPath></defs><g clip-path="url(#_clipPath_hrJAcYmTB4E61UfXSJtyqJjEgWGElkXV)"><g><g><g><line x1="113.5" y1="6" x2="12.357" y2="53.107" vector-effect="non-scaling-stroke" stroke-width="12" stroke="rgb(236,149,18)" stroke-linejoin="round" stroke-linecap="round" stroke-miterlimit="3"/><line x1="214.643" y1="53.107" x2="147.825" y2="82.656" vector-effect="non-scaling-stroke" stroke-width="12" stroke="rgb(236,149,18)" stroke-linejoin="round" stroke-linecap="round" stroke-miterlimit="3"/><line x1="113.5" y1="6" x2="214.643" y2="53.107" vector-effect="non-scaling-stroke" stroke-width="12" stroke="rgb(236,149,18)" stroke-linejoin="round" stroke-linecap="round" stroke-miterlimit="3"/><line x1="12.357" y1="53.107" x2="58.123" y2="74.091" vector-effect="non-scaling-stroke" stroke-width="12" stroke="rgb(236,149,18)" stroke-linejoin="round" stroke-linecap="round" stroke-miterlimit="3"/><line x1="87.413" y1="87.795" x2="113.5" y2="100.214" vector-effect="non-scaling-stroke" stroke-width="12" stroke="rgb(236,149,18)" stroke-linejoin="round" stroke-linecap="round" stroke-miterlimit="3"/><line x1="12.357" y1="146.893" x2="113.5" y2="194" vector-effect="non-scaling-stroke" stroke-width="12" stroke="rgb(236,149,18)" stroke-linejoin="round" stroke-linecap="round" stroke-miterlimit="3"/><line x1="113.5" y1="100.214" x2="113.5" y2="194" vector-effect="non-scaling-stroke" stroke-width="12" stroke="rgb(236,149,18)" stroke-linejoin="round" stroke-linecap="round" stroke-miterlimit="3"/><line x1="12.357" y1="100.214" x2="12.357" y2="146.893" vector-effect="non-scaling-stroke" stroke-width="12" stroke="rgb(236,149,18)" stroke-linejoin="round" stroke-linecap="round" stroke-miterlimit="3"/><ellipse vector-effect="non-scaling-stroke" cx="12.356854838709664" cy="100.21412300683376" rx="12.356854838709673" ry="11.562642369020509" fill="rgb(236,149,18)"/><ellipse vector-effect="non-scaling-stroke" cx="147.82459677419345" cy="82.65603644646926" rx="12.356854838709666" ry="11.562642369020509" fill="rgb(236,149,18)"/><ellipse vector-effect="non-scaling-stroke" cx="87.41330645161295" cy="87.7949886104784" rx="12.35685483870968" ry="11.562642369020509" fill="rgb(236,149,18)"/><ellipse vector-effect="non-scaling-stroke" cx="58.122983870967886" cy="76.23234624145788" rx="12.356854838709676" ry="11.562642369020509" fill="rgb(236,149,18)"/><ellipse vector-effect="non-scaling-stroke" cx="147.82459677419345" cy="177.72665148063783" rx="12.356854838709666" ry="11.562642369020494" fill="rgb(223,50,156)"/><ellipse vector-effect="non-scaling-stroke" cx="214.64314516129033" cy="100.00000000000004" rx="12.356854838709666" ry="11.562642369020509" fill="rgb(223,50,156)"/><line x1="147.825" y1="177.727" x2="214.643" y2="146.893"/><g style="isolation: isolate;"><line x1="147.825" y1="177.727" x2="214.643" y2="146.893" fill="none" vector-effect="non-scaling-stroke" stroke-width="12" stroke="rgb(223,50,156)" stroke-linejoin="round" stroke-linecap="round" stroke-miterlimit="3"/></g><line x1="214.643" y1="146.893" x2="214.643" y2="100.214"/><g style="isolation: isolate;"><line x1="214.643" y1="146.893" x2="214.643" y2="100.214" fill="none" vector-effect="non-scaling-stroke" stroke-width="12" stroke="rgb(223,50,156)" stroke-linejoin="round" stroke-linecap="round" stroke-miterlimit="3"/></g></g></g><path d=" M 299.923 127.382 L 270.597 127.382 L 270.597 77.411 L 278.766 77.411 L 278.766 120.375 L 299.923 120.375 L 299.923 127.382 L 299.923 127.382 Z  M 337.076 127.382 L 331.334 127.382 L 329.728 122.118 L 329.454 122.118 L 329.454 122.118 Q 326.72 125.57 323.951 126.818 L 323.951 126.818 L 323.951 126.818 Q 321.183 128.065 316.842 128.065 L 316.842 128.065 L 316.842 128.065 Q 311.271 128.065 308.143 125.058 L 308.143 125.058 L 308.143 125.058 Q 305.016 122.05 305.016 116.547 L 305.016 116.547 L 305.016 116.547 Q 305.016 110.702 309.356 107.729 L 309.356 107.729 L 309.356 107.729 Q 313.697 104.755 322.584 104.481 L 322.584 104.481 L 329.112 104.276 L 329.112 102.26 L 329.112 102.26 Q 329.112 98.637 327.42 96.842 L 327.42 96.842 L 327.42 96.842 Q 325.729 95.048 322.174 95.048 L 322.174 95.048 L 322.174 95.048 Q 319.269 95.048 316.603 95.902 L 316.603 95.902 L 316.603 95.902 Q 313.937 96.757 311.476 97.919 L 311.476 97.919 L 308.878 92.177 L 308.878 92.177 Q 311.954 90.57 315.611 89.733 L 315.611 89.733 L 315.611 89.733 Q 319.269 88.896 322.516 88.896 L 322.516 88.896 L 322.516 88.896 Q 329.728 88.896 333.402 92.04 L 333.402 92.04 L 333.402 92.04 Q 337.076 95.185 337.076 101.918 L 337.076 101.918 L 337.076 127.382 L 337.076 127.382 Z  M 319.371 121.913 L 319.371 121.913 L 319.371 121.913 Q 323.746 121.913 326.395 119.469 L 326.395 119.469 L 326.395 119.469 Q 329.044 117.025 329.044 112.616 L 329.044 112.616 L 329.044 109.335 L 324.19 109.54 L 324.19 109.54 Q 318.517 109.745 315.936 111.437 L 315.936 111.437 L 315.936 111.437 Q 313.355 113.129 313.355 116.615 L 313.355 116.615 L 313.355 116.615 Q 313.355 119.145 314.859 120.529 L 314.859 120.529 L 314.859 120.529 Q 316.363 121.913 319.371 121.913 Z  M 381.544 102.738 L 381.544 127.382 L 373.478 127.382 L 373.478 104.14 L 373.478 104.14 Q 373.478 99.765 371.717 97.611 L 371.717 97.611 L 371.717 97.611 Q 369.957 95.458 366.129 95.458 L 366.129 95.458 L 366.129 95.458 Q 361.036 95.458 358.678 98.466 L 358.678 98.466 L 358.678 98.466 Q 356.319 101.474 356.319 108.549 L 356.319 108.549 L 356.319 127.382 L 348.287 127.382 L 348.287 89.579 L 354.576 89.579 L 355.704 94.535 L 356.114 94.535 L 356.114 94.535 Q 357.823 91.835 360.968 90.365 L 360.968 90.365 L 360.968 90.365 Q 364.112 88.896 367.94 88.896 L 367.94 88.896 L 367.94 88.896 Q 381.544 88.896 381.544 102.738 L 381.544 102.738 L 381.544 102.738 Z  M 400.753 89.579 L 400.753 127.382 L 392.721 127.382 L 392.721 89.579 L 400.753 89.579 L 400.753 89.579 Z  M 392.242 79.564 L 392.242 79.564 L 392.242 79.564 Q 392.242 77.411 393.421 76.249 L 393.421 76.249 L 393.421 76.249 Q 394.601 75.087 396.788 75.087 L 396.788 75.087 L 396.788 75.087 Q 398.907 75.087 400.086 76.249 L 400.086 76.249 L 400.086 76.249 Q 401.266 77.411 401.266 79.564 L 401.266 79.564 L 401.266 79.564 Q 401.266 81.615 400.086 82.794 L 400.086 82.794 L 400.086 82.794 Q 398.907 83.974 396.788 83.974 L 396.788 83.974 L 396.788 83.974 Q 394.601 83.974 393.421 82.794 L 393.421 82.794 L 393.421 82.794 Q 392.242 81.615 392.242 79.564 Z  M 441.632 127.382 L 435.89 127.382 L 434.283 122.118 L 434.01 122.118 L 434.01 122.118 Q 431.275 125.57 428.507 126.818 L 428.507 126.818 L 428.507 126.818 Q 425.738 128.065 421.397 128.065 L 421.397 128.065 L 421.397 128.065 Q 415.826 128.065 412.699 125.058 L 412.699 125.058 L 412.699 125.058 Q 409.571 122.05 409.571 116.547 L 409.571 116.547 L 409.571 116.547 Q 409.571 110.702 413.912 107.729 L 413.912 107.729 L 413.912 107.729 Q 418.253 104.755 427.14 104.481 L 427.14 104.481 L 433.668 104.276 L 433.668 102.26 L 433.668 102.26 Q 433.668 98.637 431.976 96.842 L 431.976 96.842 L 431.976 96.842 Q 430.284 95.048 426.729 95.048 L 426.729 95.048 L 426.729 95.048 Q 423.824 95.048 421.158 95.902 L 421.158 95.902 L 421.158 95.902 Q 418.492 96.757 416.031 97.919 L 416.031 97.919 L 413.434 92.177 L 413.434 92.177 Q 416.51 90.57 420.167 89.733 L 420.167 89.733 L 420.167 89.733 Q 423.824 88.896 427.071 88.896 L 427.071 88.896 L 427.071 88.896 Q 434.283 88.896 437.958 92.04 L 437.958 92.04 L 437.958 92.04 Q 441.632 95.185 441.632 101.918 L 441.632 101.918 L 441.632 127.382 L 441.632 127.382 Z  M 423.927 121.913 L 423.927 121.913 L 423.927 121.913 Q 428.302 121.913 430.951 119.469 L 430.951 119.469 L 430.951 119.469 Q 433.6 117.025 433.6 112.616 L 433.6 112.616 L 433.6 109.335 L 428.746 109.54 L 428.746 109.54 Q 423.072 109.745 420.492 111.437 L 420.492 111.437 L 420.492 111.437 Q 417.911 113.129 417.911 116.615 L 417.911 116.615 L 417.911 116.615 Q 417.911 119.145 419.415 120.529 L 419.415 120.529 L 419.415 120.529 Q 420.919 121.913 423.927 121.913 Z  M 460.396 107.421 L 460.602 107.421 L 465.147 101.747 L 476.563 89.579 L 485.826 89.579 L 470.616 105.814 L 486.783 127.382 L 477.35 127.382 L 465.216 110.805 L 460.807 114.428 L 460.807 127.382 L 452.843 127.382 L 452.843 74.198 L 460.807 74.198 L 460.807 100.141 L 460.396 107.421 L 460.396 107.421 Z " fill-rule="evenodd" fill="rgb(0,0,0)"/><path d=" M 299.923 127.382 L 270.597 127.382 L 270.597 77.411 L 278.766 77.411 L 278.766 120.375 L 299.923 120.375 L 299.923 127.382 L 299.923 127.382 Z  M 337.076 127.382 L 331.334 127.382 L 329.728 122.118 L 329.454 122.118 L 329.454 122.118 Q 326.72 125.57 323.951 126.818 L 323.951 126.818 L 323.951 126.818 Q 321.183 128.065 316.842 128.065 L 316.842 128.065 L 316.842 128.065 Q 311.271 128.065 308.143 125.058 L 308.143 125.058 L 308.143 125.058 Q 305.016 122.05 305.016 116.547 L 305.016 116.547 L 305.016 116.547 Q 305.016 110.702 309.356 107.729 L 309.356 107.729 L 309.356 107.729 Q 313.697 104.755 322.584 104.481 L 322.584 104.481 L 329.112 104.276 L 329.112 102.26 L 329.112 102.26 Q 329.112 98.637 327.42 96.842 L 327.42 96.842 L 327.42 96.842 Q 325.729 95.048 322.174 95.048 L 322.174 95.048 L 322.174 95.048 Q 319.269 95.048 316.603 95.902 L 316.603 95.902 L 316.603 95.902 Q 313.937 96.757 311.476 97.919 L 311.476 97.919 L 308.878 92.177 L 308.878 92.177 Q 311.954 90.57 315.611 89.733 L 315.611 89.733 L 315.611 89.733 Q 319.269 88.896 322.516 88.896 L 322.516 88.896 L 322.516 88.896 Q 329.728 88.896 333.402 92.04 L 333.402 92.04 L 333.402 92.04 Q 337.076 95.185 337.076 101.918 L 337.076 101.918 L 337.076 127.382 L 337.076 127.382 Z  M 319.371 121.913 L 319.371 121.913 L 319.371 121.913 Q 323.746 121.913 326.395 119.469 L 326.395 119.469 L 326.395 119.469 Q 329.044 117.025 329.044 112.616 L 329.044 112.616 L 329.044 109.335 L 324.19 109.54 L 324.19 109.54 Q 318.517 109.745 315.936 111.437 L 315.936 111.437 L 315.936 111.437 Q 313.355 113.129 313.355 116.615 L 313.355 116.615 L 313.355 116.615 Q 313.355 119.145 314.859 120.529 L 314.859 120.529 L 314.859 120.529 Q 316.363 121.913 319.371 121.913 Z  M 381.544 102.738 L 381.544 127.382 L 373.478 127.382 L 373.478 104.14 L 373.478 104.14 Q 373.478 99.765 371.717 97.611 L 371.717 97.611 L 371.717 97.611 Q 369.957 95.458 366.129 95.458 L 366.129 95.458 L 366.129 95.458 Q 361.036 95.458 358.678 98.466 L 358.678 98.466 L 358.678 98.466 Q 356.319 101.474 356.319 108.549 L 356.319 108.549 L 356.319 127.382 L 348.287 127.382 L 348.287 89.579 L 354.576 89.579 L 355.704 94.535 L 356.114 94.535 L 356.114 94.535 Q 357.823 91.835 360.968 90.365 L 360.968 90.365 L 360.968 90.365 Q 364.112 88.896 367.94 88.896 L 367.94 88.896 L 367.94 88.896 Q 381.544 88.896 381.544 102.738 L 381.544 102.738 L 381.544 102.738 Z  M 400.753 89.579 L 400.753 127.382 L 392.721 127.382 L 392.721 89.579 L 400.753 89.579 L 400.753 89.579 Z  M 392.242 79.564 L 392.242 79.564 L 392.242 79.564 Q 392.242 77.411 393.421 76.249 L 393.421 76.249 L 393.421 76.249 Q 394.601 75.087 396.788 75.087 L 396.788 75.087 L 396.788 75.087 Q 398.907 75.087 400.086 76.249 L 400.086 76.249 L 400.086 76.249 Q 401.266 77.411 401.266 79.564 L 401.266 79.564 L 401.266 79.564 Q 401.266 81.615 400.086 82.794 L 400.086 82.794 L 400.086 82.794 Q 398.907 83.974 396.788 83.974 L 396.788 83.974 L 396.788 83.974 Q 394.601 83.974 393.421 82.794 L 393.421 82.794 L 393.421 82.794 Q 392.242 81.615 392.242 79.564 Z  M 441.632 127.382 L 435.89 127.382 L 434.283 122.118 L 434.01 122.118 L 434.01 122.118 Q 431.275 125.57 428.507 126.818 L 428.507 126.818 L 428.507 126.818 Q 425.738 128.065 421.397 128.065 L 421.397 128.065 L 421.397 128.065 Q 415.826 128.065 412.699 125.058 L 412.699 125.058 L 412.699 125.058 Q 409.571 122.05 409.571 116.547 L 409.571 116.547 L 409.571 116.547 Q 409.571 110.702 413.912 107.729 L 413.912 107.729 L 413.912 107.729 Q 418.253 104.755 427.14 104.481 L 427.14 104.481 L 433.668 104.276 L 433.668 102.26 L 433.668 102.26 Q 433.668 98.637 431.976 96.842 L 431.976 96.842 L 431.976 96.842 Q 430.284 95.048 426.729 95.048 L 426.729 95.048 L 426.729 95.048 Q 423.824 95.048 421.158 95.902 L 421.158 95.902 L 421.158 95.902 Q 418.492 96.757 416.031 97.919 L 416.031 97.919 L 413.434 92.177 L 413.434 92.177 Q 416.51 90.57 420.167 89.733 L 420.167 89.733 L 420.167 89.733 Q 423.824 88.896 427.071 88.896 L 427.071 88.896 L 427.071 88.896 Q 434.283 88.896 437.958 92.04 L 437.958 92.04 L 437.958 92.04 Q 441.632 95.185 441.632 101.918 L 441.632 101.918 L 441.632 127.382 L 441.632 127.382 Z  M 423.927 121.913 L 423.927 121.913 L 423.927 121.913 Q 428.302 121.913 430.951 119.469 L 430.951 119.469 L 430.951 119.469 Q 433.6 117.025 433.6 112.616 L 433.6 112.616 L 433.6 109.335 L 428.746 109.54 L 428.746 109.54 Q 423.072 109.745 420.492 111.437 L 420.492 111.437 L 420.492 111.437 Q 417.911 113.129 417.911 116.615 L 417.911 116.615 L 417.911 116.615 Q 417.911 119.145 419.415 120.529 L 419.415 120.529 L 419.415 120.529 Q 420.919 121.913 423.927 121.913 Z  M 460.396 107.421 L 460.602 107.421 L 465.147 101.747 L 476.563 89.579 L 485.826 89.579 L 470.616 105.814 L 486.783 127.382 L 477.35 127.382 L 465.216 110.805 L 460.807 114.428 L 460.807 127.382 L 452.843 127.382 L 452.843 74.198 L 460.807 74.198 L 460.807 100.141 L 460.396 107.421 L 460.396 107.421 Z " fill-rule="evenodd" fill="rgb(0,0,0)"/></g></g></svg>